<svg xmlns="http://www.w3.org/2000/svg" viewBox="0 0 600 420" role="img" aria-label="Industrial safety helmet">
<title>Industrial safety helmet</title>
<defs>
<linearGradient id="steel" x1="0" y1="0" x2="0" y2="1"><stop offset="0" stop-color="#e4e9ee"/><stop offset=".5" stop-color="#aab6c2"/><stop offset="1" stop-color="#7d8b99"/></linearGradient>
<linearGradient id="steel2" x1="0" y1="0" x2="1" y2="0"><stop offset="0" stop-color="#93a0ad"/><stop offset=".45" stop-color="#dfe5eb"/><stop offset="1" stop-color="#8593a1"/></linearGradient>
<linearGradient id="blue" x1="0" y1="0" x2="0" y2="1"><stop offset="0" stop-color="#2f7fe0"/><stop offset=".55" stop-color="#1656b4"/><stop offset="1" stop-color="#0e3d86"/></linearGradient>
<linearGradient id="hiviz" x1="0" y1="0" x2="0" y2="1"><stop offset="0" stop-color="#ffb02e"/><stop offset="1" stop-color="#ef7d10"/></linearGradient>
<linearGradient id="gold" x1="0" y1="0" x2="0" y2="1"><stop offset="0" stop-color="#ffe089"/><stop offset=".5" stop-color="#f7c53e"/><stop offset="1" stop-color="#d19b12"/></linearGradient>
<radialGradient id="shadow"><stop offset="0" stop-color="#0d1f33" stop-opacity=".26"/><stop offset="1" stop-color="#0d1f33" stop-opacity="0"/></radialGradient>
</defs>
<ellipse cx="300" cy="372" rx="178" ry="26" fill="url(#shadow)"/>
<path d="M132 300q168 46 336 0-14 22-58 32-52 12-110 12t-110-12q-44-10-58-32z" fill="#0e3d86"/>
<path d="M132 300q0-16 22-24 66-22 146-22t146 22q22 8 22 24-168 46-336 0z" fill="url(#blue)"/>
<path d="M300 96q66 0 92 62 14 34 16 84 2 34-30 42-78 16-156 0-32-8-30-42 2-50 16-84 26-62 92-62z" fill="url(#blue)"/>
<path d="M300 96q66 0 92 62 14 34 16 84-24-12-48-16 0-58-24-96-16-26-36-34z" fill="#2f7fe0" opacity=".5"/>
<path d="M286 100h28v182h-28z" fill="#e9f1fb" opacity=".35"/>
<path d="M228 128q-20 44-22 114M372 128q20 44 22 114" stroke="#0b3271" stroke-width="9" fill="none" stroke-linecap="round" opacity=".55"/>
<rect x="252" y="272" width="96" height="16" rx="8" fill="#0b3271" opacity=".45"/>
</svg>
